<svg id="Calque_1" data-name="Calque 1" xmlns="http://www.w3.org/2000/svg" xmlns:xlink="http://www.w3.org/1999/xlink" viewBox="0 0 139.73 120.45"><defs><style>.cls-1{fill:#010101;}.cls-2{fill:url(#Dégradé_sans_nom_3);}.cls-3{fill:url(#Dégradé_sans_nom_3-2);}.cls-4{fill:url(#Dégradé_sans_nom_3-3);}</style><linearGradient id="Dégradé_sans_nom_3" x1="193.09" y1="3566.71" x2="238.95" y2="3566.71" gradientTransform="matrix(1, 0, 0, -1, 694, 4604)" gradientUnits="userSpaceOnUse"><stop offset="0" stop-color="#e62a49"/><stop offset="1" stop-color="#ffd318"/></linearGradient><linearGradient id="Dégradé_sans_nom_3-2" x1="193.09" y1="3550.17" x2="238.95" y2="3550.17" xlink:href="#Dégradé_sans_nom_3"/><linearGradient id="Dégradé_sans_nom_3-3" x1="193.09" y1="3563.86" x2="238.95" y2="3563.86" xlink:href="#Dégradé_sans_nom_3"/></defs><path class="cls-1" d="M954.89,992.75H944.58l-3-9.34H926.65l-3,9.34H913.43l15.3-42H940Zm-15.47-16.61L934.91,962a18,18,0,0,1-.7-3.78H934a16.35,16.35,0,0,1-.73,3.67l-4.57,14.23Zm48.73,16.61h-25v-42h9.47v34.34h15.55Zm6.46-.84v-9.12a18.48,18.48,0,0,0,9.61,2.52,12.75,12.75,0,0,0,9.55-3.72q3.63-3.72,3.63-10.08,0-6.09-3.42-9.69a12.12,12.12,0,0,0-9.23-3.64,19.72,19.72,0,0,0-10.14,2.73v-8.64q4.64-2.24,12-2.23,9.68,0,15.21,5.68t5.53,15.12q0,10.11-6.24,16.38T1005,993.49A30.28,30.28,0,0,1,994.61,991.91Zm-7,75q-6.15,3.55-15.29,3.55-10.14,0-16-5.6t-5.83-15.47q0-9.9,6.39-16.14t17-6.24a34.52,34.52,0,0,1,11.78,1.85v8.87a23.45,23.45,0,0,0-11.89-2.81,12.78,12.78,0,0,0-9.61,3.84q-3.69,3.81-3.7,10.19t3.32,10a11.73,11.73,0,0,0,9,3.55,12.43,12.43,0,0,0,5.39-1v-8.2h-8.41v-7.56h17.87Zm8.95,2v-9.11a18.48,18.48,0,0,0,9.61,2.52,12.74,12.74,0,0,0,9.55-3.72q3.63-3.72,3.63-10.08,0-6.09-3.42-9.69a12.12,12.12,0,0,0-9.23-3.64,19.7,19.7,0,0,0-10.14,2.73v-8.64q4.63-2.24,12-2.23,9.68,0,15.21,5.68t5.53,15.12q0,10.11-6.24,16.38t-16.14,6.27A30,30,0,0,1,996.54,1068.9Z" transform="translate(-889.56 -950.04)"/><path class="cls-2" d="M931.68,1027.12a2.86,2.86,0,0,0-2.87,2.83v14.69a2.88,2.88,0,0,0,5.75,0V1030A2.86,2.86,0,0,0,931.68,1027.12Z" transform="translate(-889.56 -950.04)"/><path class="cls-3" d="M931.68,1049.73a2.85,2.85,0,0,0-2.87,2.82v2.55a2.88,2.88,0,0,0,5.75,0v-2.55A2.86,2.86,0,0,0,931.68,1049.73Z" transform="translate(-889.56 -950.04)"/><path class="cls-4" d="M922,1016.55a2.8,2.8,0,0,0-2.82,2.82V1030a2.06,2.06,0,0,1-4.06,0v-3.29a2.85,2.85,0,0,0-5.7,0v11.73s.18,1.58-2.19,1.58-2.31-1.58-2.31-1.58v-24.87a2.87,2.87,0,0,0-5.73,0v24.87s.23,1.62-2,1.62-2-1.62-2-1.62v-10.18a2.82,2.82,0,0,0-5.64,0v19.22a2.82,2.82,0,1,0,5.64,0v-3.35s-.12-1.48,2-1.48,2,1.48,2,1.48v22.56a2.87,2.87,0,0,0,5.73,0v-22.56s-.13-1.71,2.28-1.71,2.22,1.71,2.22,1.71v6.18a2.85,2.85,0,0,0,5.7,0v-14.73s-.1-1.53,2-1.53,2.08,1.53,2.08,1.53v25.75a2.82,2.82,0,1,0,5.63,0v-42A2.8,2.8,0,0,0,922,1016.55Z" transform="translate(-889.56 -950.04)"/></svg>