<svg width="64" height="55" viewBox="0 0 64 55" fill="none" xmlns="http://www.w3.org/2000/svg">
<g clip-path="url(#clip0_206_494)">
<path d="M29.9229 19.5023H25.2006L23.8266 15.2374H16.9882L15.6141 19.5023H10.9331L17.9409 0.324201H23.1029L29.9229 19.5023ZM22.8372 11.9178L20.7715 5.46119C20.6031 4.89891 20.4957 4.32025 20.4509 3.73515H20.3547C20.308 4.30466 20.1958 4.86696 20.0204 5.41097L17.9272 11.9087L22.8372 11.9178ZM45.1568 19.5023H33.7062V0.324201H38.0437V16.0046H45.166L45.1568 19.5023ZM48.1157 19.1187V14.9543C49.45 15.7313 50.9722 16.1292 52.5173 16.105C53.3246 16.139 54.1302 16.0056 54.8831 15.7132C55.636 15.4208 56.3199 14.9758 56.8915 14.4064C57.9999 13.274 58.5541 11.7397 58.5541 9.80366C58.5541 7.94978 58.0319 6.47489 56.9876 5.379C56.4405 4.82031 55.7809 4.38336 55.0523 4.0969C54.3236 3.81044 53.5425 3.68094 52.7601 3.71689C51.1274 3.7063 49.5223 4.13709 48.1157 4.96346V1.01827C49.5325 0.336386 51.3646 -0.00305437 53.612 -1.02244e-05C56.5678 -1.02244e-05 58.89 0.864522 60.5786 2.59359C62.2672 4.32267 63.1114 6.62406 63.1114 9.49773C63.1114 12.5754 62.1587 15.0685 60.2534 16.9772C58.348 18.8858 55.8884 19.8402 52.8746 19.8402C51.2582 19.8781 49.6477 19.6339 48.1157 19.1187ZM44.9095 53.3653C43.0316 54.446 40.6972 54.9863 37.9063 54.9863C34.81 54.9863 32.3672 54.1339 30.5779 52.4292C28.7885 50.7245 27.8984 48.3699 27.9076 45.3653C27.9076 42.3516 28.8832 39.895 30.8343 37.9954C32.7855 36.0959 35.381 35.1461 38.6208 35.1461C40.4548 35.1136 42.2806 35.3994 44.0163 35.9909V40.0411C42.3466 39.1412 40.4676 38.6985 38.5704 38.758C37.7547 38.7282 36.9416 38.8687 36.1836 39.1707C35.4256 39.4726 34.7393 39.9293 34.1688 40.5114C33.042 41.6712 32.4771 43.2222 32.4741 45.1644C32.471 47.1065 32.9779 48.6286 33.9947 49.7306C34.5267 50.2775 35.1696 50.705 35.8804 50.9845C36.5913 51.264 37.3538 51.3892 38.117 51.3516C38.9637 51.3845 39.8071 51.2285 40.5857 50.895V47.1507H36.7337V43.6986H44.9187L44.9095 53.3653ZM49.0088 54.2786V50.1188C50.3432 50.8957 51.8654 51.2936 53.4104 51.2694C54.2178 51.3036 55.0235 51.1703 55.7764 50.8779C56.5294 50.5855 57.2132 50.1404 57.7846 49.5708C58.893 48.4384 59.4472 46.9041 59.4472 44.9681C59.4472 43.1142 58.9251 41.6393 57.8808 40.5434C57.3336 39.9847 56.674 39.5478 55.9454 39.2613C55.2168 38.9748 54.4356 38.8453 53.6532 38.8813C52.0205 38.8702 50.4153 39.3011 49.0088 40.1279V36.1827C50.4226 35.5008 52.2547 35.1614 54.5051 35.1644C57.4609 35.1644 59.7831 36.0289 61.4717 37.758C63.1603 39.4871 64.0046 41.7884 64.0046 44.6621C64.0046 47.7397 63.0519 50.2329 61.1465 52.1416C59.2411 54.0502 56.7769 55.0046 53.754 55.0046C52.1384 55.0416 50.529 54.7943 48.9997 54.274L49.0088 54.2786Z" fill="#010101"/>
<path d="M19.2921 35.1963C18.9462 35.1951 18.6139 35.3303 18.3677 35.5723C18.1214 35.8144 17.9812 36.1438 17.9775 36.4885V43.1963C17.9974 43.5311 18.1447 43.8457 18.3895 44.0757C18.6343 44.3058 18.958 44.4339 19.2944 44.4339C19.6308 44.4339 19.9545 44.3058 20.1992 44.0757C20.444 43.8457 20.5914 43.5311 20.6112 43.1963V36.5114C20.6124 36.3384 20.5791 36.1668 20.5133 36.0067C20.4474 35.8466 20.3503 35.7012 20.2276 35.5788C20.1048 35.4565 19.9589 35.3596 19.7983 35.294C19.6377 35.2283 19.4656 35.1951 19.2921 35.1963Z" fill="url(#paint0_linear_206_494)"/>
<path d="M19.2921 45.5205C18.9466 45.5181 18.6143 45.6522 18.3679 45.8936C18.1215 46.1349 17.9812 46.4639 17.9775 46.8082V47.9726C17.9974 48.3073 18.1447 48.622 18.3895 48.852C18.6343 49.0821 18.958 49.2102 19.2944 49.2102C19.6308 49.2102 19.9545 49.0821 20.1992 48.852C20.444 48.622 20.5914 48.3073 20.6112 47.9726V46.8082C20.6064 46.4634 20.465 46.1345 20.2179 45.8933C19.9707 45.6521 19.6379 45.5181 19.2921 45.5205Z" fill="url(#paint1_linear_206_494)"/>
<path d="M14.8583 30.3699C14.6884 30.3686 14.5198 30.4011 14.3626 30.4654C14.2053 30.5297 14.0624 30.6245 13.9423 30.7443C13.8221 30.8641 13.727 31.0066 13.6625 31.1633C13.598 31.3201 13.5655 31.4881 13.5667 31.6575V36.5114C13.5289 36.7299 13.4148 36.9281 13.2447 37.0709C13.0746 37.2138 12.8593 37.2921 12.6369 37.2921C12.4145 37.2921 12.1992 37.2138 12.0291 37.0709C11.859 36.9281 11.7449 36.7299 11.7071 36.5114V35.0091C11.7071 34.664 11.5696 34.333 11.3248 34.0889C11.08 33.8448 10.7479 33.7077 10.4017 33.7077C10.0555 33.7077 9.7235 33.8448 9.47869 34.0889C9.23388 34.333 9.09634 34.664 9.09634 35.0091V40.3653C9.09634 40.3653 9.17878 41.0868 8.09326 41.0868C7.00774 41.0868 7.03522 40.3653 7.03522 40.3653V29.0091C7.01544 28.6755 6.86859 28.3621 6.62466 28.1328C6.38074 27.9036 6.05819 27.7759 5.72298 27.7759C5.38777 27.7759 5.06522 27.9036 4.8213 28.1328C4.57738 28.3621 4.43052 28.6755 4.41074 29.0091V40.3653C4.41074 40.3653 4.51609 41.105 3.49469 41.105C2.47329 41.105 2.57864 40.3653 2.57864 40.3653V35.7169C2.57864 35.3754 2.44254 35.0479 2.20031 34.8064C1.95808 34.5649 1.62956 34.4292 1.287 34.4292C0.944436 34.4292 0.615914 34.5649 0.373686 34.8064C0.131457 35.0479 -0.00463867 35.3754 -0.00463867 35.7169V44.4931C-0.00463867 44.8346 0.131457 45.1622 0.373686 45.4036C0.615914 45.6451 0.944436 45.7808 1.287 45.7808C1.62956 45.7808 1.95808 45.6451 2.20031 45.4036C2.44254 45.1622 2.57864 44.8346 2.57864 44.4931V42.9635C2.57864 42.9635 2.52367 42.2877 3.49469 42.2877C4.4657 42.2877 4.41074 42.9635 4.41074 42.9635V53.2648C4.43052 53.5984 4.57738 53.9119 4.8213 54.1412C5.06522 54.3704 5.38777 54.498 5.72298 54.498C6.05819 54.498 6.38074 54.3704 6.62466 54.1412C6.86859 53.9119 7.01544 53.5984 7.03522 53.2648V42.9635C7.03522 42.9635 6.97569 42.1827 8.07953 42.1827C9.18338 42.1827 9.09634 42.9635 9.09634 42.9635V45.7854C9.09634 46.1306 9.23388 46.4615 9.47869 46.7056C9.7235 46.9496 10.0555 47.0868 10.4017 47.0868C10.7479 47.0868 11.08 46.9496 11.3248 46.7056C11.5696 46.4615 11.7071 46.1306 11.7071 45.7854V39.0593C11.7071 39.0593 11.6613 38.3607 12.6231 38.3607C13.585 38.3607 13.5758 39.0593 13.5758 39.0593V50.8173C13.5654 50.9926 13.5909 51.1681 13.651 51.3331C13.7111 51.4982 13.8043 51.6492 13.9251 51.777C14.0458 51.9048 14.1915 52.0066 14.3532 52.0762C14.5149 52.1457 14.6891 52.1817 14.8652 52.1817C15.0413 52.1817 15.2155 52.1457 15.3772 52.0762C15.5388 52.0066 15.6845 51.9048 15.8053 51.777C15.926 51.6492 16.0193 51.4982 16.0794 51.3331C16.1395 51.1681 16.165 50.9926 16.1545 50.8173V31.6393C16.1533 31.471 16.1188 31.3046 16.053 31.1496C15.9871 30.9947 15.8912 30.8542 15.7708 30.7362C15.6504 30.6183 15.5078 30.5252 15.3512 30.4624C15.1946 30.3995 15.0271 30.368 14.8583 30.3699Z" fill="url(#paint2_linear_206_494)"/>
</g>
<defs>
<linearGradient id="paint0_linear_206_494" x1="-1.13132" y1="39.8402" x2="19.8738" y2="39.8402" gradientUnits="userSpaceOnUse">
<stop stop-color="#E62A49"/>
<stop offset="1" stop-color="#FFD318"/>
</linearGradient>
<linearGradient id="paint1_linear_206_494" x1="-1.13132" y1="47.3927" x2="19.8738" y2="47.3927" gradientUnits="userSpaceOnUse">
<stop stop-color="#E62A49"/>
<stop offset="1" stop-color="#FFD318"/>
</linearGradient>
<linearGradient id="paint2_linear_206_494" x1="-1.13776" y1="41.137" x2="19.8788" y2="41.137" gradientUnits="userSpaceOnUse">
<stop stop-color="#FF1542"/>
<stop offset="1" stop-color="#FFD215"/>
</linearGradient>
<clipPath id="clip0_206_494">
<rect width="64" height="55" fill="white"/>
</clipPath>
</defs>
</svg>
